Coordinates
version=1
nRows=29
nColumns=24
inDegrees=yes

Units are S.I. units (second, meters, Newtons, ...)
Angles are in degrees.

endheader
time	pelvis_tilt	pelvis_list	pelvis_rotation	pelvis_tx	pelvis_ty	pelvis_tz	hip_flexion_r	hip_adduction_r	hip_rotation_r	knee_angle_r	ankle_angle_r	subtalar_angle_r	mtp_angle_r	hip_flexion_l	hip_adduction_l	hip_rotation_l	knee_angle_l	ankle_angle_l	subtalar_angle_l	mtp_angle_l	lumbar_extension	lumbar_bending	lumbar_rotation
      0.46100000	      1.28549578	      5.37388380	      1.56949856	     -0.75977706	      1.00795726	      0.25729059	     20.32324897	     -3.30531637	     -3.37245560	     -5.25243649	      4.80668965	    -11.37781394	      0.61116448	    -16.04581960	      9.09687762	      7.64827964	     -6.16002401	      9.09026228	    -14.84587793	      0.41293903	     -5.21940700	     -7.14602204	     -2.68738997
      0.46516667	      1.24657077	      5.38502277	      1.60877753	     -0.75379528	      1.00737873	      0.25738344	     20.33157574	     -3.25287145	     -3.24382969	     -5.46933524	      4.91674168	    -11.24221572	      1.25711051	    -16.03697003	      9.07999251	      7.46607915	     -6.82492540	      9.28293905	    -14.35075299	      0.68482919	     -5.09917010	     -7.13828484	     -2.67343016
      0.46933333	      1.35438041	      5.34939068	      1.63826871	     -0.74777664	      1.00706610	      0.25752546	     20.09523507	     -3.13239811	     -2.94145149	     -5.57353361	      4.79243883	    -11.53300149	      1.86837470	    -16.20325874	      9.00834815	      7.37105205	     -7.45222201	      9.37929530	    -14.04643702	      0.98130824	     -5.16857029	     -7.05706702	     -2.77257839
      0.47350000	      1.36064970	      5.33514823	      1.65040136	     -0.74172122	      1.00661139	      0.25764555	     20.03429278	     -3.04351954	     -2.72490452	     -5.86197344	      4.67646908	    -11.65067546	      7.16952547	    -16.22733749	      8.97369535	      7.24227298	     -8.14076801	      9.42638547	    -13.79579689	      3.99743659	     -5.09773522	     -6.99375575	     -2.76392874
      0.47766667	      1.40133447	      5.31776619	      1.67900284	     -0.73564780	      1.00625613	      0.25777290	     19.90947097	     -2.95175188	     -2.46705542	     -6.16776880	      4.59031328	    -11.75147867	      7.17044933	    -16.24871066	      8.92235535	      7.06561379	     -8.91028835	      9.51808833	    -13.36459045	      4.07669483	     -5.07292519	     -6.93761901	     -2.79699013
      0.48183333	      1.43343456	      5.29579474	      1.69537342	     -0.72953811	      1.00592338	      0.25792743	     19.78328320	     -2.84839426	     -2.15707305	     -6.49548212	      4.44799250	    -11.93053927	      7.18968483	    -16.22877508	      8.86705207	      6.84627875	     -9.73680641	      9.58795103	    -12.90038934	      4.18949452	     -5.02631821	     -6.87623671	     -2.80862518
      0.48600000	      1.47981573	      5.26757523	      1.70471823	     -0.72340762	      1.00563598	      0.25809098	     19.63982917	     -2.73850813	     -1.84024922	     -6.86054893	      4.26022142	    -12.12012536	      7.22749747	    -16.19454075	      8.80270855	      6.59410565	    -10.61963706	      9.63439077	    -12.39570596	      4.34266886	     -4.99693991	     -6.80142418	     -2.81167021
      0.49016667	      1.49805764	      5.24205250	      1.71600023	     -0.71725192	      1.00535112	      0.25826390	     19.52606023	     -2.63223343	     -1.52059365	     -7.26037585	      4.03645072	    -12.31949429	      7.28054081	    -16.08592638	      8.73712859	      6.29492661	    -11.57934071	      9.64696255	    -11.84936737	      4.54098757	     -4.92816399	     -6.73059967	     -2.80806449
      0.49433333	      1.56260531	      5.22093961	      1.70054223	     -0.71111026	      1.00513335	      0.25846356	     19.38198940	     -2.52673853	     -1.20212708	     -7.72091147	      3.77763830	    -12.51334832	      7.33741334	    -16.00014590	      8.67819131	      5.96487132	    -12.58506644	      9.63875646	    -11.28620543	      4.75659601	     -4.91890436	     -6.65791136	     -2.79900031
      0.49850000	      1.56359346	      5.18064137	      1.72900558	     -0.70490675	      1.00490300	      0.25863661	     19.26488040	     -2.41347361	     -0.90181374	     -8.13657891	      3.50823096	    -12.72796100	      7.41367838	    -15.78616234	      8.57981471	      5.59639328	    -13.70612401	      9.57783638	    -10.65093821	      5.05591104	     -4.81725624	     -6.57035331	     -2.77038126
      0.50266667	      1.61438551	      5.15084338	      1.72161366	     -0.69873667	      1.00473931	      0.25885289	     19.12206593	     -2.30525006	     -0.60106005	     -8.61689017	      3.22492202	    -12.92857917	      7.49448249	    -15.59283191	      8.49218747	      5.17354795	    -14.87186825	      9.47636495	     -9.98483546	      5.40046753	     -4.78316866	     -6.49211525	     -2.73934103
      0.50683333	      1.66669149	      5.10493090	      1.73200614	     -0.69256325	      1.00462820	      0.25905849	     18.96086306	     -2.18607514	     -0.31134116	     -9.07960878	      2.83754918	    -13.26951799	      8.98566196	    -15.36244914	      8.37530714	      4.75406197	    -16.08993961	      9.20890073	     -9.44910207	     12.51452375	     -4.75726368	     -6.38881244	     -2.70195406
      0.51100000	      1.67410765	      5.07967976	      1.72653598	     -0.68639603	      1.00445940	      0.25926908	     18.89312722	     -2.09723997	     -0.10221119	     -9.64916618	      2.62584540	    -13.29558882	      8.97232504	    -15.03065822	      8.28007583	      4.28094608	    -17.41461783	      9.00223373	     -8.76664276	     12.59020325	     -4.66554341	     -6.31622301	     -2.66868961
      0.51516667	      1.69892362	      5.04071292	      1.73077969	     -0.68025637	      1.00435693	      0.25949790	     18.78949961	     -1.99462625	      0.12478603	    -10.19229202	      2.34006037	    -13.47259753	      8.95957366	    -14.66467830	      8.15417108	      3.78741953	    -18.82267291	      8.75356747	     -8.05190402	     12.73147277	     -4.60465732	     -6.22479706	     -2.62351688
      0.51933333	      1.73451471	      4.99499802	      1.73397438	     -0.67413977	      1.00428962	      0.25973318	     18.67988484	     -1.88946820	      0.32315684	    -10.75455354	      2.08226995	    -13.62804624	      8.94724969	    -14.26835329	      8.01017041	      3.27846653	    -20.29697054	      8.44956335	     -7.33962573	     12.94011307	     -4.55742568	     -6.12825673	     -2.57161028
      0.52350000	      1.76038222	      4.94929642	      1.73755583	     -0.66804802	      1.00423312	      0.25998252	     18.58791916	     -1.78909837	      0.49521524	    -11.33668274	      1.85214249	    -13.75833748	      8.93350516	    -13.81208209	      7.85344576	      2.74710129	    -21.84449306	      8.06140053	     -6.63692043	     13.19554443	     -4.50225296	     -6.02969614	     -2.52161033
      0.52766667	      1.78045218	      4.89514122	      1.74260433	     -0.66198315	      1.00419902	      0.26024369	     18.50766408	     -1.68399462	      0.64172733	    -11.93566471	      1.65647163	    -13.86868445	      8.91666473	    -13.30858526	      7.67685923	      2.21712518	    -23.45022460	      7.59011438	     -5.96365596	     13.48292270	     -4.44849370	     -5.92647405	     -2.46356445
      0.53183333	      1.83008635	      4.81744234	      1.74585194	     -0.65595716	      1.00422161	      0.26051930	     18.38935645	     -1.55429218	      0.77997717	    -12.52366730	      1.46725712	    -14.03061365	      8.38255618	    -12.79109259	      7.45396108	      1.64652211	    -25.10552934	      6.98809122	     -5.38851225	     21.31329899	     -4.43249418	     -5.77474601	     -2.39323369
      0.53600000	      1.84623625	      4.76965857	      1.75385547	     -0.64997984	      1.00421998	      0.26079121	     18.32878754	     -1.46769240	      0.85915350	    -13.15842531	      1.38207064	    -14.05133581	      8.38231192	    -12.20244959	      7.26234952	      1.13294060	    -26.81799573	      6.36908008	     -4.78131199	     21.36474199	     -4.37584451	     -5.68770077	     -2.33904206
      0.54016667	      1.87266248	      4.69597656	      1.76427468	     -0.64403555	      1.00425515	      0.26106576	     18.24880793	     -1.35569092	      0.92590753	    -13.77761503	      1.31507558	    -14.09993232	      8.37340110	    -11.58346568	      7.02977669	      0.61775141	    -28.58731196	      5.69803416	     -4.20939649	     21.45502229	     -4.34095745	     -5.56343453	     -2.27494486
      0.54433333	      1.91987281	      4.60547317	      1.78717143	     -0.63816362	      1.00432921	      0.26135473	     18.14110745	     -1.22848173	      0.97113175	    -14.38728231	      1.27591066	    -14.21605894	      8.33144070	    -10.94391581	      6.76009252	      0.11491130	    -30.41615622	      5.02873452	     -3.62536252	     21.73324121	     -4.34631137	     -5.40168837	     -2.17617667
      0.54850000	      1.98504668	      4.48805207	      1.77707667	     -0.63230998	      1.00445266	      0.26171023	     17.98866899	     -1.05950958	      1.06654895	    -14.93079397	      1.18117379	    -14.34571207	      8.06689317	    -10.29948399	      6.44570880	     -0.44439846	    -32.25906193	      4.25637336	     -3.08574424	     23.14534076	     -4.37049587	     -5.22138055	     -2.03937111
      0.55266667	      1.95692319	      4.43254578	      1.79065101	     -0.62652926	      1.00445177	      0.26198071	     17.99390571	     -0.98339351	      1.03850961	    -15.60475663	      1.33663493	    -14.22838422	      8.04552428	     -9.53165668	      6.22287470	     -0.85820020	    -34.11620697	      3.40750548	     -2.76866964	     23.27065624	     -4.28606652	     -5.12157828	     -2.03640089
      0.55683333	      1.99007554	      4.33176631	      1.80658408	     -0.62076774	      1.00457927	      0.26228814	     17.87579912	     -0.85262878	      1.03166277	    -16.15738434	      1.45321051	    -14.19715538	      8.02185915	     -8.80548233	      5.92565099	     -1.29666074	    -35.99105756	      2.52621804	     -2.45836194	     23.37372648	     -4.27120252	     -4.97601509	     -1.97005742
      0.56100000	      2.00524832	      4.22271926	      1.81649040	     -0.61509134	      1.00467268	      0.26261483	     17.78981620	     -0.71081336	      1.01984462	    -16.72934744	      1.57482946	    -14.19024024	      7.98379087	     -8.03313123	      5.61758239	     -1.70758206	    -37.89243270	      1.69464477	     -2.15631913	     23.49916905	     -4.26055557	     -4.81153210	     -1.88073191
      0.56516667	      2.03491574	      4.11071247	      1.82766090	     -0.60945053	      1.00482121	      0.26294484	     17.65812143	     -0.56686426	      1.00041882	    -17.23743733	      1.73717076	    -14.17501467	      7.94316446	     -7.26312456	      5.30070901	     -2.09958064	    -39.78300854	      0.82592742	     -1.96086290	     23.60190466	     -4.26407902	     -4.64941059	     -1.79246303
      0.56933333	      2.05300528	      3.99550423	      1.83969755	     -0.60384910	      1.00498146	      0.26327142	     17.52385558	     -0.42043258	      0.97078140	    -17.71237647	      1.92282051	    -14.15915431	      7.90026817	     -6.46965399	      4.98253359	     -2.45607572	    -41.66179017	     -0.03092118	     -1.84651834	     23.67839923	     -4.25997403	     -4.47930824	     -1.69986258
      0.57350000	      2.07542299	      3.88032528	      1.84736669	     -0.59832295	      1.00515831	      0.26360001	     17.37804571	     -0.27334283	      0.93818537	    -18.16835191	      2.13284641	    -14.13958094	      7.84491127	     -5.67026871	      4.66961684	     -2.77673987	    -43.52403065	     -0.84383811	     -1.79204924	     23.73530682	     -4.27779188	     -4.29758719	     -1.59593542
      0.57766667	      2.09285854	      3.75995848	      1.85725217	     -0.59281192	      1.00537283	      0.26393751	     17.20682651	     -0.12042124	      0.89759216	    -18.56050655	      2.35806319	    -14.11045641	      7.79195029	     -4.86047757	      4.34816310	     -3.08211353	    -45.35581740	     -1.63230093	     -1.83978295	     23.74912463	     -4.28118091	     -4.13371066	     -1.49244348
